<svg xmlns="http://www.w3.org/2000/svg" viewBox="0 0 200 200" role="img" aria-labelledby="title2 desc2">
  <title id="title2">Cosplay Vestiti Icon</title>
  <desc id="desc2">Icona quadrata per navbar e mobile.</desc>
  <defs>
    <linearGradient id="gradMain2" x1="0%" y1="0%" x2="100%" y2="100%">
      <stop offset="0%" stop-color="#7C3AED"></stop>
      <stop offset="50%" stop-color="#EC4899"></stop>
      <stop offset="100%" stop-color="#F59E0B"></stop>
    </linearGradient>
    <filter id="shadow2" x="-20%" y="-20%" width="140%" height="140%">
      <feDropShadow dx="0" dy="8" stdDeviation="10" flood-color="#7C3AED" flood-opacity="0.18"></feDropShadow>
    </filter>
  </defs>
  <rect x="12" y="12" width="176" height="176" rx="38" fill="#ffffff" filter="url(#shadow2)"></rect>
  <path d="M52 58c0-18 14-32 32-32 17 0 32 14 32 32 0 8-3 16-9 22l-11 10h26c9 0 16 7 16 16s-7 16-16 16H48c-9 0-16-7-16-16s7-16 16-16h26L63 80c-6-6-11-14-11-22z" fill="url(#gradMain2)"></path>
  <path d="M48 122c16-12 31-18 46-18 15 0 30 6 46 18" fill="none" stroke="#ffffff" stroke-width="9" stroke-linecap="round"></path>
  <path d="M128 34l8 8 12-3-3 12 8 8-12 3-3 12-8-8-12 3 3-12-8-8 12-3z" fill="#F59E0B" opacity="0.95"></path>
</svg>